<svg width="209.507568359375px" height="122.021240234375px" xmlns="http://www.w3.org/2000/svg" viewBox="145.2462158203125 13.9893798828125 209.507568359375 122.021240234375" style="background: rgb(253, 253, 253);" preserveAspectRatio="xMidYMid"><defs><filter id="editing-raise" x="-100%" y="-100%" width="300%" height="300%"><feFlood flood-color="#fdfdfd" result="flood-surface"></feFlood><feFlood flood-color="#bbcedd" result="flood-extrude"></feFlood><feMorphology operator="erode" in="SourceAlpha" radius="1" result="erode"></feMorphology><feConvolveMatrix in="erode" result="shadow" order="11,8" divisor="1" kernelMatrix="0 0 0 1 1 1 1 1 0 0 0 0 0 1 0 0 0 0 0 1 0 0 0 0 1 0 0 0 0 0 1 0 0 0 0 1 0 0 0 0 0 1 0 0 0 0 1 0 0 0 0 0 1 0 0 0 0 0 1 0 0 0 1 0 0 0 0 0 0 1 1 0 1 1 0 0 0 0 0 0 0 0 1 0 0 0 0 0"></feConvolveMatrix><feOffset dx="0" dy="4" in="shadow" result="offset"></feOffset><feGaussianBlur in="offset" stdDeviation="0.2" result="blur"></feGaussianBlur><feComposite operator="in" in="flood-extrude" in2="blur" result="extrude"></feComposite><feMorphology operator="erode" in="SourceAlpha" radius="1" result="erode2"></feMorphology><feConvolveMatrix in="erode2" result="out" order="4,4" divisor="1" kernelMatrix="0 1 1 0 1 0 0 1 1 0 0 1 0 1 1 0 "></feConvolveMatrix><feComposite operator="in" in="flood-surface" in2="out" result="text"></feComposite><feMerge><feMergeNode in="extrude"></feMergeNode><feMergeNode in="text"></feMergeNode></feMerge></filter></defs><g filter="url(#editing-raise)"><g transform="translate(181.77499544620514, 98.43781280517578)"><path d="M16.38-3.52L16.38-3.52L16.38-3.52Q14.40 1.28 8.06 1.28L8.06 1.28L8.06 1.28Q4.86 1.28 2.82-0.96L2.82-0.96L2.82-0.96Q1.15-2.82 1.15-4.93L1.15-4.93L1.15-4.93Q1.15-9.73 3.39-20.22L3.39-20.22L8.06-44.80L21.06-46.08L14.85-13.70L14.85-13.70Q13.76-8.96 13.76-7.30L13.76-7.30L13.76-7.30Q13.76-3.65 16.38-3.52ZM35.78 1.28L35.78 1.28L35.78 1.28Q21.70 1.28 21.70-11.97L21.70-11.97L21.70-11.97Q21.70-21.38 26.88-27.46L26.88-27.46L26.88-27.46Q32.38-33.92 41.92-33.92L41.92-33.92L41.92-33.92Q48.83-33.92 52.35-30.72L52.35-30.72L52.35-30.72Q55.87-27.52 55.87-20.80L55.87-20.80L55.87-20.80Q55.87-10.56 50.37-4.61L50.37-4.61L50.37-4.61Q44.99 1.28 35.78 1.28ZM37.44-26.56L37.44-26.56L37.44-26.56Q36.67-24.83 36.06-22.24L36.06-22.24L36.06-22.24Q35.46-19.65 34.69-15.55L34.69-15.55L34.69-15.55Q33.92-11.46 33.92-6.40L33.92-6.40L33.92-6.40Q33.92-4.74 34.46-3.65L34.46-3.65L34.46-3.65Q35.01-2.56 36.48-2.56L36.48-2.56L36.48-2.56Q37.95-2.56 38.88-3.26L38.88-3.26L38.88-3.26Q39.81-3.97 40.51-5.63L40.51-5.63L40.51-5.63Q41.79-8.58 42.82-14.05L42.82-14.05L42.82-14.05Q43.84-19.52 43.94-21.89L43.94-21.89L43.94-21.89Q44.03-24.26 44.03-26.02L44.03-26.02L44.03-26.02Q44.03-27.78 43.52-28.93L43.52-28.93L43.52-28.93Q43.01-30.08 41.57-30.08L41.57-30.08L41.57-30.08Q40.13-30.08 39.17-29.18L39.17-29.18L39.17-29.18Q38.21-28.29 37.44-26.56ZM80.19-2.69L80.19-2.69L80.19-2.69Q77.12 1.28 69.50 1.28L69.50 1.28L69.50 1.28Q65.54 1.28 62.66-1.12L62.66-1.12L62.66-1.12Q59.78-3.52 59.78-6.98L59.78-6.98L59.78-6.98Q59.78-8.90 59.97-9.86L59.97-9.86L64.26-32.64L77.25-33.92L72.58-9.22L72.58-9.22Q72.32-7.81 72.32-6.98L72.32-6.98L72.32-6.98Q72.32-3.26 74.56-3.26L74.56-3.26L74.56-3.26Q77.06-3.26 78.85-6.66L78.85-6.66L78.85-6.66Q79.42-7.74 79.68-9.15L79.68-9.15L84.22-32.64L96.83-33.92L92.10-8.96L92.10-8.96Q91.90-8 91.90-6.98L91.90-6.98L91.90-6.98Q91.90-5.95 92.48-4.83L92.48-4.83L92.48-4.83Q93.06-3.71 94.91-3.46L94.91-3.46L94.91-3.46Q94.53-1.92 93.18-0.90L93.18-0.90L93.18-0.90Q90.37 1.28 87.33 1.28L87.33 1.28L87.33 1.28Q84.29 1.28 82.50 0.19L82.50 0.19L82.50 0.19Q80.70-0.90 80.19-2.69ZM127.36 1.28L127.36 1.28L127.36 1.28Q119.62 1.28 119.62-4.74L119.62-4.74L119.62-4.74Q119.68-6.40 120.19-9.22L120.19-9.22L121.34-15.10L121.34-15.10Q123.07-23.42 123.07-25.28L123.07-25.28L123.07-25.28Q123.07-28.99 120.90-28.99L120.90-28.99L120.90-28.99Q117.25-28.99 115.33-19.46L115.33-19.46L111.55 0L98.69 1.28L105.34-32.70L115.84-33.92L114.82-27.65L114.82-27.65Q117.82-33.92 127.04-33.92L127.04-33.92L127.04-33.92Q131.52-33.92 133.41-32.03L133.41-32.03L133.41-32.03Q135.30-30.14 135.30-25.92L135.30-25.92L135.30-25.92Q135.30-21.95 133.25-12.67L133.25-12.67L133.25-12.67Q132.29-8.51 132.29-6.94L132.29-6.94L132.29-6.94Q132.29-5.38 133.15-4.48L133.15-4.48L133.15-4.48Q134.02-3.58 135.30-3.46L135.30-3.46L135.30-3.46Q134.66-1.28 132.45 0L132.45 0L132.45 0Q130.24 1.28 127.36 1.28Z"></path></g></g><style>text {
  font-size: 64px;
  font-family: Arial Black;
  dominant-baseline: central;
  text-anchor: middle;
}</style></svg>